Format                                   : MPEG-4
Format profile                           : Base Media / Version 2
Codec ID                                 : mp42
File size                                : 1.36 GiB
Duration                                 : 2h 41mn
Overall bit rate mode                    : Variable
Overall bit rate                         : 1 206 Kbps

Video
ID                                       : 1
Format                                   : AVC
Format/Info                              : Advanced Video Codec
Format profile                           : High@L3.0
Format settings, CABAC                   : Yes
Format settings, ReFrames                : 4 frames
Codec ID                                 : avc1
Codec ID/Info                            : Advanced Video Coding
Duration                                 : 2h 41mn
Bit rate mode                            : Variable
Bit rate                                 : 1 124 Kbps
Maximum bit rate                         : 3 646 Kbps
Width                                    : 720 pixels
Height                                   : 404 pixels
Display aspect ratio                     : 16:9
Frame rate mode                          : Constant
Frame rate                               : 29.970 fps
Color space                              : YUV
Chroma subsampling                       : 4:2:0
Bit depth                                : 8 bits
Scan type                                : Progressive
Bits/(Pixel*Frame)                       : 0.129
Stream size                              : 1.27 GiB (93%)
Language                                 : English

Audio
ID                                       : 2
Format                                   : AAC
Format/Info                              : Advanced Audio Codec
Format profile                           : LC
Codec ID                                 : 40
Duration                                 : 2h 41mn
Bit rate mode                            : Variable
Bit rate                                 : 77.9 Kbps
Maximum bit rate                         : 87.2 Kbps
Channel(s)                               : 2 channels
Channel positions                        : Front: L R
Sampling rate                            : 48.0 KHz
Compression mode                         : Lossy
Delay relative to video                  : 33ms
Stream size                              : 90.1 MiB (6%)
Language                                 : English
Subtitles                                : None

Screens.  http://bayimg.com/CankCAaea

Covers.  http://bayimg.com/BaNkPaAEa

         http://bayimg.com/CanKaAAea

         http://bayimg.com/CanKbaaEa

Enjoy.